<svg xmlns="http://www.w3.org/2000/svg" viewBox="0 0 144.24 39.5"><defs><style>.cls-1{fill:none;stroke:#000;stroke-miterlimit:10;}</style></defs><title>web-m</title><g id="Calque_2" data-name="Calque 2"><g id="Calque_1-2" data-name="Calque 1"><path class="cls-1" d="M65.92.5,53.6,39H39.68L33.47,18.43,26.92,39H13L.68.5H14.05l6.71,21.89L27.85.5H39.79L46.5,22.67,53.6.5Z"/><path class="cls-1" d="M100.78,29.21V39h-32V.5h31.3v9.79H81.53V14.8H97.81v9.35H81.53v5.06Z"/><path class="cls-1" d="M141.87,22.55a9.25,9.25,0,0,1,1.87,5.83,8.87,8.87,0,0,1-4.18,7.84Q135.38,39,127.46,39H105.79V.5h20.57q7.7,0,11.63,2.75a8.51,8.51,0,0,1,3.93,7.32,8.93,8.93,0,0,1-1.34,4.84,9.74,9.74,0,0,1-4,3.46A11.57,11.57,0,0,1,141.87,22.55Zm-23.32-13v5.71h6q4.23,0,4.23-2.86T124.6,9.58Zm12.1,17.32c0-2-1.43-3-4.29-3h-7.81v6h7.81C129.22,29.92,130.65,28.92,130.65,26.9Z"/></g></g></svg>