<svg xmlns="http://www.w3.org/2000/svg" viewBox="0 0 235.27 64"><defs><style>.cls-1{fill:none;stroke:#000;stroke-miterlimit:10;}</style></defs><title>web-l</title><g id="Calque_2" data-name="Calque 2"><g id="Calque_1-2" data-name="Calque 1"><path class="cls-1" d="M107.42.5l-20.15,63H64.49L54.32,29.84,43.61,63.5H20.84L.68.5H22.55l11,35.82L45.14.5H64.67l11,36.27L87.27.5Z"/><path class="cls-1" d="M164.48,47.48v16H112.1V.5h51.21v16H133V23.9h26.64V39.2H133v8.28Z"/><path class="cls-1" d="M231.71,36.59a15.14,15.14,0,0,1,3.06,9.54A14.54,14.54,0,0,1,227.93,59q-6.84,4.55-19.8,4.54H172.67V.5h33.66q12.6,0,19,4.5a13.93,13.93,0,0,1,6.43,12,14.57,14.57,0,0,1-2.2,7.92,15.82,15.82,0,0,1-6.53,5.67A18.89,18.89,0,0,1,231.71,36.59ZM193.55,15.35v9.36h9.9q6.93,0,6.93-4.68t-6.93-4.68Zm19.8,28.35q0-5-7-5H193.55v9.9h12.78Q213.35,48.65,213.35,43.7Z"/></g></g></svg>