<svg xmlns="http://www.w3.org/2000/svg" viewBox="0 0 92.22 25.5"><defs><style>.cls-1{fill:none;stroke:#000;stroke-miterlimit:10;}</style></defs><title>web-s</title><g id="Calque_2" data-name="Calque 2"><g id="Calque_1-2" data-name="Calque 1"><path class="cls-1" d="M42.2.5,34.35,25H25.5L21.55,11.91,17.38,25H8.53L.68.5H9.19l4.27,13.93L18,.5h7.59l4.27,14.11L34.35.5Z"/><path class="cls-1" d="M64.39,18.77V25H44V.5H63.93V6.73H52.14V9.6H62.49v6H52.14v3.22Z"/><path class="cls-1" d="M90.53,14.54a5.89,5.89,0,0,1,1.19,3.71,5.65,5.65,0,0,1-2.66,5Q86.41,25,81.36,25H67.57V.5H80.66c3.27,0,5.73.58,7.4,1.75a5.42,5.42,0,0,1,2.5,4.66A5.69,5.69,0,0,1,89.71,10a6.2,6.2,0,0,1-2.54,2.2A7.32,7.32,0,0,1,90.53,14.54ZM75.69,6.28V9.92h3.85c1.8,0,2.69-.61,2.69-1.83s-.89-1.81-2.69-1.81Zm7.7,11q0-1.92-2.73-1.92h-5v3.84h5Q83.39,19.22,83.39,17.3Z"/></g></g></svg>